<svg width="72.466362mm" height="53.711044mm" viewBox="0 0 72.466362 53.711044" version="1.1" id="svg1" xml:space="preserve" sodipodi:docname="Bank.svg" inkscape:version="1.4 (e7c3feb1, 2024-10-09)" xmlns:inkscape="http://www.inkscape.org/namespaces/inkscape" xmlns:sodipodi="http://sodipodi.sourceforge.net/DTD/sodipodi-0.dtd" xmlns="http://www.w3.org/2000/svg" xmlns:svg="http://www.w3.org/2000/svg"><sodipodi:namedview id="namedview1" pagecolor="#ffffff" bordercolor="#000000" borderopacity="0.25" inkscape:showpageshadow="2" inkscape:pageopacity="0.0" inkscape:pagecheckerboard="0" inkscape:deskcolor="#d1d1d1" inkscape:document-units="mm" inkscape:zoom="3.2563476" inkscape:cx="116.8487" inkscape:cy="108.71075" inkscape:window-width="2400" inkscape:window-height="1315" inkscape:window-x="377" inkscape:window-y="25" inkscape:window-maximized="0" inkscape:current-layer="layer4" /><defs id="defs1" /><g inkscape:groupmode="layer" id="layer4" inkscape:label="Bank" style="display:inline" transform="translate(-87.259774,-22.135218)"><text xml:space="preserve" style="font-size:3.52778px;font-family:Arial;-inkscape-font-specification:Arial;text-align:center;letter-spacing:0.264583px;word-spacing:0.264583px;writing-mode:lr-tb;direction:ltr;text-anchor:middle;display:inline;fill:#000000;fill-rule:evenodd;stroke:#000000;stroke-width:0.2" x="157.29196" y="39.05217" id="text3-4-3" inkscape:label="A'"><tspan  sodipodi:role="line"  id="tspan3-1-1"  style="font-size:3.52778px;letter-spacing:0.264583px;stroke-width:0.2"  x="157.42426"  y="39.05217">A'</tspan></text><text xml:space="preserve" style="font-size:3.52778px;font-family:Arial;-inkscape-font-specification:Arial;text-align:center;letter-spacing:1.05833px;word-spacing:0.264583px;writing-mode:lr-tb;direction:ltr;text-anchor:middle;display:inline;fill:#e3000f;fill-rule:evenodd;stroke:#ff0000;stroke-width:0.2" x="88.788239" y="39.005165" id="text2-3-0-0" inkscape:label="A"><tspan  sodipodi:role="line"  id="tspan2-9-3-2"  style="font-size:3.52778px;fill:#000000;stroke:#000000;stroke-width:0.2"  x="89.317406"  y="39.005165">A</tspan></text><text xml:space="preserve" style="font-size:3.52778px;font-family:Arial;-inkscape-font-specification:Arial;text-align:center;letter-spacing:1.05833px;word-spacing:0.264583px;writing-mode:lr-tb;direction:ltr;text-anchor:middle;display:inline;fill:#e3000f;fill-rule:evenodd;stroke:#ff0000;stroke-width:0.2" x="88.541443" y="65.755882" id="text2-3-0" inkscape:label="A"><tspan  sodipodi:role="line"  id="tspan2-9-3"  style="font-size:3.52778px;fill:#000000;stroke:#000000;stroke-width:0.2"  x="89.07061"  y="65.755882">A</tspan></text><text xml:space="preserve" style="font-size:3.52778px;font-family:Arial;-inkscape-font-specification:Arial;text-align:center;letter-spacing:0.264583px;word-spacing:0.264583px;writing-mode:lr-tb;direction:ltr;text-anchor:middle;display:inline;fill:#000000;fill-rule:evenodd;stroke:#000000;stroke-width:0.2" x="158.14595" y="64.698792" id="text3-4" inkscape:label="A'"><tspan  sodipodi:role="line"  id="tspan3-1"  style="font-size:3.52778px;letter-spacing:0.264583px;stroke-width:0.2"  x="158.27824"  y="64.698792">A'</tspan></text><path style="display:inline;opacity:1;fill:none;fill-opacity:1;fill-rule:evenodd;stroke:#000000;stroke-width:0.2;stroke-dasharray:none;stroke-dashoffset:0" d="m 93.538343,38.451975 h 8.799357 c 11.11629,-17.504527 18.1028,-16.189289 20.4292,-15.977101 3.99171,0.364079 6.42328,2.909765 11.92185,5.528781 2.311,1.100751 2.93402,0.794966 5.10249,2.653928 2.68003,2.297507 5.53134,7.668507 6.96512,8.03547 l 6.50911,0.180808 v 0 l -0.18081,-0.06027" id="path181" sodipodi:nodetypes="ccssscccc" /><path id="path182" style="display:inline;opacity:1;fill:#666666;fill-opacity:1;fill-rule:evenodd;stroke:#000000;stroke-width:0.105;stroke-dasharray:0.315, 0.315;stroke-dashoffset:0" d="m 136.43544,71.5258 c -4.82276,2.245789 -9.09884,4.58573 -14.06361,4.039283 -7.95682,-0.875766 -10.60589,-3.570599 -13.49479,-5.483467 -0.52097,-0.344955 -2.13846,-0.78663 -3.68961,-1.117144 -1.55116,-0.330514 -3.03382,-1.524429 -3.51975,-2.681379 -0.97187,-2.313899 1.64273,-7.093816 4.65822,-9.661526 4.31231,-3.671959 6.90736,-8.091279 12.86391,-9.82143 3.29495,-0.957058 10.73879,1.864872 13.46052,3.279166 2.61144,1.356986 6.42137,6.062654 8.50564,7.897187 2.0219,1.779635 3.19474,2.831625 3.54583,5.457982 0.30075,2.24982 -5.29649,6.708362 -8.26636,8.091328 z" sodipodi:nodetypes="sssssssssss" transform="translate(0.59456929,0.14864228)" /><path id="path183" style="display:inline;opacity:1;fill:none;fill-opacity:1;fill-rule:evenodd;stroke:#000000;stroke-width:0.105;stroke-dasharray:0.315, 0.315;stroke-dashoffset:0" d="m 121.12716,73.029883 c -4.41742,-1.699384 -7.35695,-4.189839 -10.51498,-5.078876 -1.65713,-0.466508 -3.40504,-0.3966 -4.10417,-1.377863 -2.43781,-3.421587 0.86797,-6.006035 5.13177,-9.769683 4.69184,-4.141471 5.83379,-5.320319 9.57174,-5.91721 3.3882,-0.54104 9.98062,1.689057 12.61675,3.520245 2.79419,1.940982 5.53687,5.249468 7.50038,8.036014 1.51029,2.143351 -1.5529,3.173433 -3.16841,4.781301 -3.62554,3.608391 -14.27305,6.867857 -17.03308,5.806072 z" sodipodi:nodetypes="sssssssss" /><path id="path185" style="display:inline;opacity:1;fill:none;fill-rule:evenodd;stroke:#000000;stroke-width:0.105;stroke-dasharray:0.315, 0.315;stroke-dashoffset:0" d="m 117.02509,68.161766 c -4.25676,-1.50881 -5.81912,-1.878267 -7.16232,-3.818204 -0.79256,-1.14467 2.63632,-3.297179 4.67502,-5.440239 1.33321,-1.401456 2.38095,-2.927907 5.67944,-3.650677 8.72274,-0.6625 6.02184,-0.244466 10.06512,1.253931 2.80306,1.038784 1.93921,0.754789 4.18555,3.576067 1.5105,1.897111 2.05881,2.657676 2.01915,3.848995 -0.0685,2.05675 -2.04135,2.801008 -6.13432,5.006991 -5.58957,3.012603 -8.16991,1.051294 -13.32764,-0.776864 z" sodipodi:nodetypes="ssscsssss" /><path id="path184" style="display:inline;opacity:1;fill:none;fill-rule:evenodd;stroke:#000000;stroke-width:0.105;stroke-dasharray:0.315, 0.315;stroke-dashoffset:0" d="m 118.45723,65.666822 c -2.72647,-0.56632 -2.7088,-2.609272 -0.72513,-4.352717 1.67401,-1.471282 1.9363,-1.684267 3.48636,-1.994844 2.45411,0.171578 1.74874,-0.321621 3.66661,0.642845 2.34248,1.177995 2.7672,1.296188 2.5013,3.306568 -0.30362,2.295579 -0.75747,3.315248 -1.73463,3.560521 -1.77909,0.44656 -3.56186,1.082729 -5.01045,0.18745 z" sodipodi:nodetypes="cscssssc" /><path style="display:inline;opacity:1;fill:none;fill-rule:evenodd;stroke:#000000;stroke-width:1;stroke-dasharray:4, 1;stroke-dashoffset:0" d="m 93.064313,63.315195 59.425777,0.602694" id="path180" transform="translate(0.59456929,0.14864228)" sodipodi:nodetypes="cc" /><path style="fill:none;fill-rule:evenodd;stroke:#000000;stroke-width:1;stroke-dasharray:none" d="m 102.29572,38.675743 c 10.58381,-17.919745 20.86059,-19.96858 32.74438,-10.400199 5.83264,1.353512 8.76148,6.057577 11.86272,10.562704" id="path1" sodipodi:nodetypes="ccc" /></g></svg>