<svg width="76.906227mm" height="45.685364mm" viewBox="0 0 76.906227 45.685364" version="1.1" id="svg1" xml:space="preserve" sodipodi:docname="Block.svg" inkscape:version="1.4 (e7c3feb1, 2024-10-09)" xmlns:inkscape="http://www.inkscape.org/namespaces/inkscape" xmlns:sodipodi="http://sodipodi.sourceforge.net/DTD/sodipodi-0.dtd" xmlns="http://www.w3.org/2000/svg" xmlns:svg="http://www.w3.org/2000/svg"><sodipodi:namedview id="namedview1" pagecolor="#ffffff" bordercolor="#000000" borderopacity="0.25" inkscape:showpageshadow="2" inkscape:pageopacity="0.0" inkscape:pagecheckerboard="0" inkscape:deskcolor="#d1d1d1" inkscape:document-units="mm" inkscape:zoom="3.2563476" inkscape:cx="72.473835" inkscape:cy="114.8526" inkscape:window-width="2400" inkscape:window-height="1315" inkscape:window-x="377" inkscape:window-y="25" inkscape:window-maximized="0" inkscape:current-layer="layer5" /><defs id="defs1" /><g inkscape:groupmode="layer" id="layer5" inkscape:label="Block" style="display:inline" transform="translate(-83.832665,-23.043534)"><path style="opacity:1;fill:none;fill-opacity:1;fill-rule:evenodd;stroke:#000000;stroke-width:0.2;stroke-dasharray:none;stroke-dashoffset:0" d="M 83.955484,23.083238 V 40.742216 H 124.33608" id="path186" /><path style="opacity:1;fill:none;fill-opacity:1;fill-rule:evenodd;stroke:#000000;stroke-width:0.2;stroke-dasharray:none;stroke-dashoffset:0" d="m 128.0728,23.987281 v 16.754935 h 32.66609" id="path187" /><path style="opacity:1;fill:none;fill-opacity:1;fill-rule:evenodd;stroke:#000000;stroke-width:0.2;stroke-dasharray:none;stroke-dashoffset:0" d="m 109.20843,49.119684 v 19.467065 h 38.15062" id="path188" /><path style="opacity:1;fill:none;fill-opacity:1;fill-rule:evenodd;stroke:#000000;stroke-width:0.2;stroke-dasharray:none;stroke-dashoffset:0" d="m 116.74212,39.958713 7.5337,0.843774 v 0 h -0.0603" id="path189" sodipodi:nodetypes="cccc" /><path style="opacity:1;fill:none;fill-opacity:1;fill-rule:evenodd;stroke:#000000;stroke-width:0.2;stroke-dasharray:0.6, 0.6;stroke-dashoffset:0" d="m 94.683465,30.496393 3.435363,6.268032" id="path190" /><path style="opacity:1;fill:none;fill-opacity:1;fill-rule:evenodd;stroke:#000000;stroke-width:0.2;stroke-dasharray:0.6, 0.6;stroke-dashoffset:0" d="m 104.20605,31.641515 2.16971,4.158599" id="path191" /><path style="opacity:1;fill:none;fill-opacity:1;fill-rule:evenodd;stroke:#000000;stroke-width:0.2;stroke-dasharray:none;stroke-dashoffset:0" d="m 83.834945,23.143508 c 3.171327,0.07232 5.701258,1.343949 8.317199,2.290243 0.803594,1.514188 1.607188,3.152365 2.410782,5.30372" id="path192" sodipodi:nodetypes="ccc" /><path style="opacity:1;fill:none;fill-opacity:1;fill-rule:evenodd;stroke:#000000;stroke-width:1;stroke-dasharray:none;stroke-dashoffset:0" d="m 95.105351,30.496393 6.448839,-2.531321 2.83267,3.676443 6.50912,-2.65186 1.38619,0.361616 3.49564,9.52259 0.90404,0.964313" id="path193" /><path style="opacity:1;fill:none;fill-opacity:1;fill-rule:evenodd;stroke:#000000;stroke-width:0.4;stroke-dasharray:none;stroke-dashoffset:0" d="m 127.95226,24.047551 c 3.01247,-0.178285 5.58384,0.746158 7.95558,2.169704 l 2.10943,10.125284 3.31483,0.723236" id="path194" sodipodi:nodetypes="cccc" /><path style="opacity:1;fill:none;fill-opacity:1;fill-rule:evenodd;stroke:#000000;stroke-width:0.4;stroke-dasharray:none;stroke-dashoffset:0" d="m 151.21631,39.054669 9.46231,1.808086" id="path195" /><path style="opacity:1;fill:none;fill-opacity:1;fill-rule:evenodd;stroke:#000000;stroke-width:1;stroke-dasharray:none;stroke-dashoffset:0" d="m 141.3321,36.945236 -2.35051,-10.185556 9.70339,1.868358 2.35051,10.306092" id="path196" /><path style="opacity:1;fill:none;fill-opacity:1;fill-rule:evenodd;stroke:#000000;stroke-width:0.4;stroke-dasharray:none;stroke-dashoffset:0" d="m 109.14816,49.179953 c 1.9411,0.102536 3.87,0.144102 5.96668,1.024583 1.12771,0.559841 1.36429,1.709466 2.04917,2.712129" id="path197" sodipodi:nodetypes="ccc" /><path style="opacity:1;fill:none;fill-opacity:1;fill-rule:evenodd;stroke:#000000;stroke-width:0.4;stroke-dasharray:none;stroke-dashoffset:0" d="m 135.00379,65.995158 c 4.09833,2.036006 8.19666,2.575148 12.29499,2.531321" id="path198" sodipodi:nodetypes="cc" /><path style="opacity:1;fill:none;fill-opacity:1;fill-rule:evenodd;stroke:#000000;stroke-width:0.2;stroke-dasharray:0.4, 0.4;stroke-dashoffset:0" d="m 119.63506,54.724752 0.54242,9.40205" id="path199" /><path style="opacity:1;fill:none;fill-opacity:1;fill-rule:evenodd;stroke:#000000;stroke-width:0.2;stroke-dasharray:0.4, 0.4;stroke-dashoffset:0" d="m 125.3004,58.582004 0.18081,5.122912" id="path200" /><path style="opacity:1;fill:none;fill-opacity:1;fill-rule:evenodd;stroke:#000000;stroke-width:0.2;stroke-dasharray:0.4, 0.4;stroke-dashoffset:0" d="m 125.54147,58.160118 1.26567,1.145122" id="path201" /><path style="opacity:1;fill:none;fill-opacity:1;fill-rule:evenodd;stroke:#000000;stroke-width:0.2;stroke-dasharray:0.4, 0.4;stroke-dashoffset:0" d="m 129.70007,57.497151 0.90405,1.084853" id="path202" /><path style="opacity:1;fill:none;fill-opacity:1;fill-rule:evenodd;stroke:#000000;stroke-width:0.2;stroke-dasharray:0.4, 0.4;stroke-dashoffset:0" d="m 135.1846,65.814349 -6.26803,-0.06027" id="path203" /><path style="opacity:1;fill:none;fill-opacity:1;fill-rule:evenodd;stroke:#000000;stroke-width:0.2;stroke-dasharray:0.4, 0.4;stroke-dashoffset:0" d="m 117.10374,53.218013 0.30135,2.71213" id="path204" /><path style="opacity:1;fill:none;fill-opacity:1;fill-rule:evenodd;stroke:#000000;stroke-width:1;stroke-dasharray:none;stroke-dashoffset:0" d="m 117.40509,52.916666 1.86835,-0.361617 0.54243,2.169703 5.42426,-1.506739 v 4.881835 l 2.83267,-1.808088 1.50674,1.024583 2.41078,-0.361617 0.48215,1.988894 4.58049,0.120539 1.3862,6.629651 -3.3751,0.06027" id="path205" /></g></svg>