<svg width="44.545624mm" height="62.360016mm" viewBox="0 0 44.545624 62.360016" version="1.1" id="svg1" xml:space="preserve" sodipodi:docname="Hole.svg" inkscape:version="1.4 (e7c3feb1, 2024-10-09)" xmlns:inkscape="http://www.inkscape.org/namespaces/inkscape" xmlns:sodipodi="http://sodipodi.sourceforge.net/DTD/sodipodi-0.dtd" xmlns="http://www.w3.org/2000/svg" xmlns:svg="http://www.w3.org/2000/svg"><sodipodi:namedview id="namedview1" pagecolor="#ffffff" bordercolor="#000000" borderopacity="0.25" inkscape:showpageshadow="2" inkscape:pageopacity="0.0" inkscape:pagecheckerboard="0" inkscape:deskcolor="#d1d1d1" inkscape:document-units="mm" inkscape:zoom="3.2563476" inkscape:cx="-11.208877" inkscape:cy="172.89309" inkscape:window-width="2400" inkscape:window-height="1315" inkscape:window-x="377" inkscape:window-y="25" inkscape:window-maximized="0" inkscape:current-layer="layer20" /><defs id="defs1" /><g inkscape:groupmode="layer" id="layer20" inkscape:label="Hole" style="display:inline" transform="translate(-106.00932,-20.756831)"><text xml:space="preserve" style="font-size:3.52778px;font-family:Arial;-inkscape-font-specification:Arial;text-align:center;letter-spacing:0.264583px;word-spacing:0.264583px;writing-mode:lr-tb;direction:ltr;text-anchor:middle;display:inline;fill:#000000;fill-rule:evenodd;stroke:#000000;stroke-width:0.2" x="148.131" y="23.382088" id="text65" inkscape:label="A'"><tspan  sodipodi:role="line"  id="tspan65"  style="font-size:3.52778px;letter-spacing:0.264583px;stroke-width:0.2"  x="148.26329"  y="23.382088">A'</tspan></text><text xml:space="preserve" style="font-size:3.52778px;font-family:Arial;-inkscape-font-specification:Arial;text-align:center;letter-spacing:1.05833px;word-spacing:0.264583px;writing-mode:lr-tb;direction:ltr;text-anchor:middle;display:inline;fill:#e3000f;fill-rule:evenodd;stroke:#ff0000;stroke-width:0.2" x="107.29099" y="23.51589" id="text66" inkscape:label="A"><tspan  sodipodi:role="line"  id="tspan66"  style="font-size:3.52778px;fill:#000000;stroke:#000000;stroke-width:0.2"  x="107.82016"  y="23.51589">A</tspan></text><text xml:space="preserve" style="font-size:3.52778px;font-family:Arial;-inkscape-font-specification:Arial;text-align:center;letter-spacing:0.264583px;word-spacing:0.264583px;writing-mode:lr-tb;direction:ltr;text-anchor:middle;display:inline;fill:#000000;fill-rule:evenodd;stroke:#000000;stroke-width:0.2" x="148.97476" y="59.001392" id="text67" inkscape:label="A'"><tspan  sodipodi:role="line"  id="tspan67"  style="font-size:3.52778px;letter-spacing:0.264583px;stroke-width:0.2"  x="149.10706"  y="59.001392">A'</tspan></text><text xml:space="preserve" style="font-size:3.52778px;font-family:Arial;-inkscape-font-specification:Arial;text-align:center;letter-spacing:1.05833px;word-spacing:0.264583px;writing-mode:lr-tb;direction:ltr;text-anchor:middle;display:inline;fill:#e3000f;fill-rule:evenodd;stroke:#ff0000;stroke-width:0.2" x="108.61692" y="81.67601" id="text68" inkscape:label="A"><tspan  sodipodi:role="line"  id="tspan68"  style="font-size:3.52778px;fill:#000000;stroke:#000000;stroke-width:0.2"  x="109.14609"  y="81.67601">A</tspan></text><path style="display:inline;fill:none;fill-rule:evenodd;stroke:#000000;stroke-width:0.4;stroke-dasharray:none" d="m 112.10137,24.650246 5.48452,1.567009" id="path137" /><path style="display:inline;fill:none;fill-rule:evenodd;stroke:#000000;stroke-width:0.4;stroke-dasharray:none" d="m 138.61997,25.915907 5.06264,-1.024582" id="path138" /><path style="display:inline;fill:none;fill-rule:evenodd;stroke:#000000;stroke-width:1;stroke-dasharray:none" d="m 117.70643,26.337794 c 4.20331,4.504503 0.34452,14.576256 3.73672,20.612187 4.88459,1.157413 9.73932,1.747318 14.46469,-0.120539 2.06978,-5.72279 0.33503,-17.460837 2.89294,-20.853265" id="path139" sodipodi:nodetypes="cccc" /><path style="fill:#666666;fill-opacity:1;fill-rule:evenodd;stroke:#000000;stroke-width:0.2;stroke-dasharray:0.8, 0.2;stroke-dashoffset:0" d="m 115.11485,69.611332 c 2.05327,-4.198659 9.57562,-9.278595 14.76603,-10.908789 5.97251,-0.136729 10.43289,2.332602 12.4758,5.906415 0.69334,6.925399 -2.13534,11.838211 -5.90642,16.21251 -5.63101,2.919674 -10.63245,2.369752 -15.79062,1.506739 -3.78187,-2.578681 -5.93855,-10.50139 -5.54479,-12.716875 z" id="path141" sodipodi:nodetypes="cccccc" /><path style="fill:none;fill-rule:evenodd;stroke:#000000;stroke-width:0.2;stroke-dasharray:0.8, 0.2;stroke-dashoffset:0" d="m 117.10374,69.249715 c 2.3155,-3.114993 5.29139,-6.182815 12.05391,-8.980164 6.02217,-0.778984 9.36352,1.488427 11.8731,4.701026 0.4302,8.668246 -2.79398,11.616589 -5.96669,14.6455 -5.78703,2.734527 -12.16155,1.701945 -13.80172,1.084852 -2.37351,-3.279406 -4.5628,-6.440542 -4.1586,-11.451214 z" id="path142" sodipodi:nodetypes="cccccc" /><path style="fill:none;fill-rule:evenodd;stroke:#000000;stroke-width:0.2;stroke-dasharray:0.8, 0.2;stroke-dashoffset:0" d="m 118.61048,69.008635 c 1.02634,-2.153166 5.83007,-5.950301 11.02932,-7.533693 4.12506,-0.456004 7.30154,1.673189 9.64313,4.399677 0.1637,3.431145 -1.51764,9.563728 -4.88183,12.17445 -4.43175,2.191989 -8.04045,1.750191 -11.69229,1.446469 -1.74697,-2.071527 -4.3015,-4.621302 -4.09833,-10.486903 z" id="path143" sodipodi:nodetypes="cccccc" /><path style="fill:none;fill-rule:evenodd;stroke:#000000;stroke-width:0.2;stroke-dasharray:0.8, 0.2;stroke-dashoffset:0" d="m 119.99668,69.490793 c 1.46811,-2.380758 2.71127,-4.082484 9.46232,-6.509113 3.49067,-0.3278 5.78828,1.034566 7.35288,3.435366 0.81332,4.576139 -1.52561,7.112592 -3.31482,10.004745 -4.71873,2.855081 -7.60139,1.871097 -10.60745,1.145122 -1.7581,-1.738607 -2.85405,-4.736278 -2.89293,-8.07612 z" id="path144" sodipodi:nodetypes="cccccc" /><path style="fill:none;fill-rule:evenodd;stroke:#000000;stroke-width:0.2;stroke-dasharray:0.8, 0.2;stroke-dashoffset:0" d="m 124.21554,65.513002 1.08486,1.3862" id="path145" /><path style="fill:none;fill-rule:evenodd;stroke:#000000;stroke-width:0.2;stroke-dasharray:0.8, 0.2;stroke-dashoffset:0" d="m 129.39873,63.222758 0.0603,1.988897" id="path146" /><path style="fill:none;fill-rule:evenodd;stroke:#000000;stroke-width:0.2;stroke-dasharray:0.8, 0.2;stroke-dashoffset:0" d="m 136.81188,67.019741 -1.62728,0.904044" id="path147" /><path style="fill:none;fill-rule:evenodd;stroke:#000000;stroke-width:0.2;stroke-dasharray:0.8, 0.2;stroke-dashoffset:0" d="m 135.90784,72.745348 -1.80809,-0.904042" id="path148" /><path style="fill:none;fill-rule:evenodd;stroke:#000000;stroke-width:0.2;stroke-dasharray:0.8, 0.2;stroke-dashoffset:0" d="m 132.05059,77.084755 -0.96432,-1.687547" id="path149" /><path style="fill:none;fill-rule:evenodd;stroke:#000000;stroke-width:0.2;stroke-dasharray:0.8, 0.2;stroke-dashoffset:0" d="m 122.76908,77.205294 1.50673,-1.506739" id="path150" /><path style="fill:none;fill-rule:evenodd;stroke:#000000;stroke-width:0.2;stroke-dasharray:0.8, 0.2;stroke-dashoffset:0" d="m 120.17748,69.430523 1.44647,0.602695" id="path151" /><path style="display:inline;fill:none;fill-rule:evenodd;stroke:#000000;stroke-width:1;stroke-dasharray:4, 1;stroke-dashoffset:0" d="M 111.98083,78.651763 144.22504,59.546317" id="path140" /></g></svg>