<svg width="69.97937mm" height="44.642929mm" viewBox="0 0 69.97937 44.642929" version="1.1" id="svg1" xml:space="preserve" sodipodi:docname="Mound.svg" inkscape:version="1.4 (e7c3feb1, 2024-10-09)" xmlns:inkscape="http://www.inkscape.org/namespaces/inkscape" xmlns:sodipodi="http://sodipodi.sourceforge.net/DTD/sodipodi-0.dtd" xmlns="http://www.w3.org/2000/svg" xmlns:svg="http://www.w3.org/2000/svg"><sodipodi:namedview id="namedview1" pagecolor="#ffffff" bordercolor="#000000" borderopacity="0.25" inkscape:showpageshadow="2" inkscape:pageopacity="0.0" inkscape:pagecheckerboard="0" inkscape:deskcolor="#d1d1d1" inkscape:document-units="mm" inkscape:zoom="3.2563476" inkscape:cx="78.769232" inkscape:cy="131.12851" inkscape:window-width="2400" inkscape:window-height="1315" inkscape:window-x="377" inkscape:window-y="51" inkscape:window-maximized="0" inkscape:current-layer="layer25" /><defs id="defs1" /><g inkscape:groupmode="layer" id="layer25" inkscape:label="Mound" style="display:inline" transform="translate(-82.202851,-31.759144)"><text xml:space="preserve" style="font-size:3.52778px;font-family:Arial;-inkscape-font-specification:Arial;text-align:center;letter-spacing:0.264583px;word-spacing:0.264583px;writing-mode:lr-tb;direction:ltr;text-anchor:middle;display:inline;fill:#000000;fill-rule:evenodd;stroke:#000000;stroke-width:0.2" x="150.60204" y="48.514492" id="text85" inkscape:label="A'"><tspan  sodipodi:role="line"  id="tspan85"  style="font-size:3.52778px;letter-spacing:0.264583px;stroke-width:0.2"  x="150.73433"  y="48.514492">A'</tspan></text><text xml:space="preserve" style="font-size:3.52778px;font-family:Arial;-inkscape-font-specification:Arial;text-align:center;letter-spacing:1.05833px;word-spacing:0.264583px;writing-mode:lr-tb;direction:ltr;text-anchor:middle;display:inline;fill:#e3000f;fill-rule:evenodd;stroke:#ff0000;stroke-width:0.2" x="83.48452" y="48.88937" id="text86" inkscape:label="A"><tspan  sodipodi:role="line"  id="tspan86"  style="font-size:3.52778px;fill:#000000;stroke:#000000;stroke-width:0.2"  x="84.013687"  y="48.88937">A</tspan></text><text xml:space="preserve" style="font-size:3.52778px;font-family:Arial;-inkscape-font-specification:Arial;text-align:center;letter-spacing:0.264583px;word-spacing:0.264583px;writing-mode:lr-tb;direction:ltr;text-anchor:middle;display:inline;fill:#000000;fill-rule:evenodd;stroke:#000000;stroke-width:0.2" x="150.51773" y="68.433243" id="text87" inkscape:label="A'"><tspan  sodipodi:role="line"  id="tspan87"  style="font-size:3.52778px;letter-spacing:0.264583px;stroke-width:0.2"  x="150.65002"  y="68.433243">A'</tspan></text><text xml:space="preserve" style="font-size:3.52778px;font-family:Arial;-inkscape-font-specification:Arial;text-align:center;letter-spacing:1.05833px;word-spacing:0.264583px;writing-mode:lr-tb;direction:ltr;text-anchor:middle;display:inline;fill:#e3000f;fill-rule:evenodd;stroke:#ff0000;stroke-width:0.2" x="83.59388" y="69.040733" id="text88" inkscape:label="A"><tspan  sodipodi:role="line"  id="tspan88"  style="font-size:3.52778px;fill:#000000;stroke:#000000;stroke-width:0.2"  x="84.123047"  y="69.040733">A</tspan></text><path style="display:inline;fill:#666666;fill-opacity:1;fill-rule:evenodd;stroke:#000000;stroke-width:0.2;stroke-dasharray:0.8, 0.2;stroke-dashoffset:0" d="m 92.935649,70.515376 c -1.277232,-2.584359 0.254046,-4.342685 1.627277,-6.147496 5.618674,-2.527435 8.911084,-7.504746 16.634394,-9.22124 4.88604,-0.288961 10.71031,1.063963 16.87548,3.013478 4.87629,3.354867 10.53003,6.91705 10.78825,9.040431 -0.64095,4.764353 -13.34447,8.056813 -23.38459,9.100703 -4.72014,-0.748193 -9.50791,-1.158279 -13.92227,-3.435365 -2.675192,-1.475294 -7.072566,-1.684248 -8.618541,-2.350511 z" id="path290" sodipodi:nodetypes="cccccccc" /><path style="fill:none;fill-rule:evenodd;stroke:#000000;stroke-width:0.4;stroke-dasharray:none" d="m 87.029231,46.648631 5.484529,-0.06027" id="path285" /><path style="fill:none;fill-rule:evenodd;stroke:#000000;stroke-width:0.4;stroke-dasharray:none" d="m 138.37889,46.528092 6.56938,0.06027" id="path286" /><path style="fill:none;fill-rule:evenodd;stroke:#000000;stroke-width:1;stroke-dasharray:4, 1;stroke-dashoffset:0" d="m 87.692197,66.838932 56.653383,0.06027" id="path287" /><path style="fill:none;fill-rule:evenodd;stroke:#000000;stroke-width:1;stroke-dasharray:none" d="m 92.393221,46.467823 c 4.44922,-0.462612 3.327356,-7.81698 7.955579,-9.643128 9.80132,-2.502202 26.9892,1.167263 30.43613,2.471052 3.83878,1.552533 5.47524,4.573283 7.47342,7.352884" id="path288" sodipodi:nodetypes="cccc" /><path style="fill:none;fill-rule:evenodd;stroke:#000000;stroke-width:0.2;stroke-dasharray:0.4, 0.2;stroke-dashoffset:0" d="M 87.330581,35.029869 H 147.53986" id="path289" /><path style="fill:none;fill-rule:evenodd;stroke:#000000;stroke-width:0.2;stroke-dasharray:0.8, 0.2;stroke-dashoffset:0" d="m 98.962603,68.767557 c -0.967716,-1.109028 -0.766338,-2.347955 -0.301347,-3.616172 4.332304,-2.377709 8.074234,-5.647133 13.440114,-6.870729 4.62052,2.26e-4 8.52575,1.14493 12.35525,2.410783 2.79758,1.731032 5.56009,3.485441 7.41316,5.846146 -0.93559,2.347127 -10.577,5.087489 -16.6344,5.785877 -4.10981,-0.066 -7.88195,-1.145007 -11.51148,-2.651861 z" id="path291" sodipodi:nodetypes="cccccccc" /><path style="fill:none;fill-rule:evenodd;stroke:#000000;stroke-width:0.2;stroke-dasharray:0.8, 0.2;stroke-dashoffset:0" d="m 106.01414,67.562168 c -0.60965,-0.832569 -0.5312,-1.779823 -0.18081,-2.772399 1.13117,-1.774885 2.98761,-3.187133 5.72561,-4.158599 1.86836,-0.260658 3.73671,0.556816 5.60507,1.567008 1.3412,1.381148 2.81604,2.743205 3.07374,4.279138 -1.75174,2.266306 -4.28449,3.10076 -6.99126,3.616171 -2.64615,-0.373042 -5.21992,-0.890839 -7.23235,-2.531319 z" id="path292" sodipodi:nodetypes="ccccccc" /><text xml:space="preserve" style="font-size:2.11667px;font-family:Arial;-inkscape-font-specification:Arial;text-align:center;letter-spacing:0.264583px;word-spacing:0.264583px;writing-mode:lr-tb;direction:ltr;text-anchor:middle;display:inline;fill:#666666;fill-opacity:1;fill-rule:evenodd;stroke:#000000;stroke-width:0.2;stroke-dasharray:none;stroke-dashoffset:0;stroke-opacity:1" x="138.40556" y="33.380501" id="text490"><tspan  sodipodi:role="line"  id="tspan490"  style="font-style:italic;stroke:#000000;stroke-width:0.2;stroke-dasharray:none;stroke-opacity:1"  x="138.53786"  y="33.380501">&lt; 500 m high</tspan></text></g></svg>