<svg width="40.001373mm" height="68.277832mm" viewBox="0 0 40.001373 68.277832" version="1.1" id="svg1" xml:space="preserve" sodipodi:docname="Pinnacle.svg" inkscape:version="1.4 (e7c3feb1, 2024-10-09)" xmlns:inkscape="http://www.inkscape.org/namespaces/inkscape" xmlns:sodipodi="http://sodipodi.sourceforge.net/DTD/sodipodi-0.dtd" xmlns="http://www.w3.org/2000/svg" xmlns:svg="http://www.w3.org/2000/svg"><sodipodi:namedview id="namedview1" pagecolor="#ffffff" bordercolor="#000000" borderopacity="0.25" inkscape:showpageshadow="2" inkscape:pageopacity="0.0" inkscape:pagecheckerboard="0" inkscape:deskcolor="#d1d1d1" inkscape:document-units="mm" inkscape:zoom="3.2563476" inkscape:cx="30.862799" inkscape:cy="160.3023" inkscape:window-width="2400" inkscape:window-height="1315" inkscape:window-x="377" inkscape:window-y="25" inkscape:window-maximized="0" inkscape:current-layer="layer27" /><defs id="defs1" /><g inkscape:groupmode="layer" id="layer27" inkscape:label="Pinnacle" style="display:inline" transform="translate(-94.919725,-11.010198)"><text xml:space="preserve" style="font-size:3.52778px;font-family:Arial;-inkscape-font-specification:Arial;text-align:center;letter-spacing:0.264583px;word-spacing:0.264583px;writing-mode:lr-tb;direction:ltr;text-anchor:middle;display:inline;fill:#000000;fill-rule:evenodd;stroke:#000000;stroke-width:0.2" x="132.8828" y="47.670719" id="text93" inkscape:label="A'"><tspan  sodipodi:role="line"  id="tspan93"  style="font-size:3.52778px;letter-spacing:0.264583px;stroke-width:0.2"  x="133.01509"  y="47.670719">A'</tspan></text><text xml:space="preserve" style="font-size:3.52778px;font-family:Arial;-inkscape-font-specification:Arial;text-align:center;letter-spacing:1.05833px;word-spacing:0.264583px;writing-mode:lr-tb;direction:ltr;text-anchor:middle;display:inline;fill:#e3000f;fill-rule:evenodd;stroke:#ff0000;stroke-width:0.2" x="96.201393" y="47.985329" id="text94" inkscape:label="A"><tspan  sodipodi:role="line"  id="tspan94"  style="font-size:3.52778px;fill:#000000;stroke:#000000;stroke-width:0.2"  x="96.73056"  y="47.985329">A</tspan></text><text xml:space="preserve" style="font-size:3.52778px;font-family:Arial;-inkscape-font-specification:Arial;text-align:center;letter-spacing:0.264583px;word-spacing:0.264583px;writing-mode:lr-tb;direction:ltr;text-anchor:middle;display:inline;fill:#000000;fill-rule:evenodd;stroke:#000000;stroke-width:0.2" x="133.34091" y="72.471298" id="text95" inkscape:label="A'"><tspan  sodipodi:role="line"  id="tspan95"  style="font-size:3.52778px;letter-spacing:0.264583px;stroke-width:0.2"  x="133.47321"  y="72.471298">A'</tspan></text><text xml:space="preserve" style="font-size:3.52778px;font-family:Arial;-inkscape-font-specification:Arial;text-align:center;letter-spacing:1.05833px;word-spacing:0.264583px;writing-mode:lr-tb;direction:ltr;text-anchor:middle;display:inline;fill:#e3000f;fill-rule:evenodd;stroke:#ff0000;stroke-width:0.2" x="96.551834" y="72.717178" id="text96" inkscape:label="A"><tspan  sodipodi:role="line"  id="tspan96"  style="font-size:3.52778px;fill:#000000;stroke:#000000;stroke-width:0.2"  x="97.081001"  y="72.717178">A</tspan></text><path style="fill:#666666;fill-opacity:1;fill-rule:evenodd;stroke:#000000;stroke-width:0.2;stroke-dasharray:0.4, 0.2;stroke-dashoffset:0" d="m 108.666,76.240983 c -2.91773,-0.253353 -4.36506,-1.514976 -1.68755,-5.605068 2.24464,-1.918852 3.97817,-4.37934 6.87073,-5.966688 2.6981,0.03603 5.15506,1.036646 7.5337,2.350514 2.11095,1.795427 4.48868,5.135524 4.58048,6.087223 -0.57698,1.206893 -1.63692,4.40579 -9.82394,6.026957 -2.83468,0.409845 -5.45674,-1.597802 -7.47342,-2.892938 z" id="path307" sodipodi:nodetypes="ccccccc" /><path style="fill:none;fill-rule:evenodd;stroke:#000000;stroke-width:0.4;stroke-dasharray:none" d="m 98.962603,48.155373 c 2.689697,-0.105138 5.535787,0.102509 7.774777,-0.904045" id="path303" sodipodi:nodetypes="cc" /><path style="fill:none;fill-rule:evenodd;stroke:#000000;stroke-width:0.4;stroke-dasharray:none" d="m 122.34719,47.010251 c 2.0694,1.345313 4.56507,0.559219 6.931,0.421886" id="path304" sodipodi:nodetypes="cc" /><path style="fill:none;fill-rule:evenodd;stroke:#000000;stroke-width:1;stroke-dasharray:none" d="m 106.55657,47.191059 c 2.91303,-10.567261 1.62245,-38.3144681 8.73908,-31.701784 1.53983,-5.033082 2.94008,-5.5300453 4.1586,-0.12054 l 3.19429,31.762054" id="path305" sodipodi:nodetypes="cccc" /><path style="fill:none;fill-rule:evenodd;stroke:#000000;stroke-width:1;stroke-dasharray:4, 1;stroke-dashoffset:0" d="m 101.61446,71.720767 27.90481,0.06027" id="path306" /><path style="fill:none;fill-rule:evenodd;stroke:#000000;stroke-width:0.2;stroke-dasharray:0.4, 0.2;stroke-dashoffset:0" d="m 111.13705,74.915053 c -3.87342,0.03982 -3.50394,-1.93573 -0.96431,-4.942105 1.60826,-1.468134 2.90057,-3.212718 5.72561,-3.616171 3.56727,0.09772 5.79677,1.934556 7.77477,4.098329 1.56369,1.787996 1.97554,3.575992 -1.56701,5.363988 -1.99409,1.038802 -4.11453,1.445797 -6.26803,1.68755 -1.67608,-0.68208 -3.47991,-1.151242 -4.70103,-2.591591 z" id="path308" sodipodi:nodetypes="ccccccc" /><path style="fill:none;fill-rule:evenodd;stroke:#000000;stroke-width:0.2;stroke-dasharray:0.4, 0.2;stroke-dashoffset:0" d="m 118.91182,73.8302 c -1.63137,-1.245571 -1.03133,-2.852759 0.6027,-3.736713 1.19194,-0.0028 2.39491,1.035318 2.59159,2.410783 -0.48657,1.047761 -1.40049,2.585034 -3.19429,1.32593 z" id="path309" sodipodi:nodetypes="cccc" /></g></svg>